<?xml version="1.0" encoding="UTF-8" standalone="no"?>
<!-- Created with Inkscape (http://www.inkscape.org/) by Toomai Glittershine for SmashWiki -->

<svg
   xmlns:dc="http://purl.org/dc/elements/1.1/"
   xmlns:cc="http://creativecommons.org/ns#"
   xmlns:rdf="http://www.w3.org/1999/02/22-rdf-syntax-ns#"
   xmlns:svg="http://www.w3.org/2000/svg"
   xmlns="http://www.w3.org/2000/svg"
   xmlns:sodipodi="http://sodipodi.sourceforge.net/DTD/sodipodi-0.dtd"
   xmlns:inkscape="http://www.inkscape.org/namespaces/inkscape"
   id="svg2"
   version="1.1"
   height="256"
   width="256"
   viewBox="0 0 256 256"
   sodipodi:docname="currupt.svg"
   inkscape:version="0.92.2 (5c3e80d, 2017-08-06)">
  <defs
     id="defs8" />
  <sodipodi:namedview
     pagecolor="#ffffff"
     bordercolor="#666666"
     borderopacity="1"
     objecttolerance="10"
     gridtolerance="10"
     guidetolerance="10"
     inkscape:pageopacity="0"
     inkscape:pageshadow="2"
     inkscape:window-width="1577"
     inkscape:window-height="796"
     id="namedview6"
     showgrid="false"
     inkscape:zoom="0.921875"
     inkscape:cx="128"
     inkscape:cy="128"
     inkscape:window-x="67"
     inkscape:window-y="27"
     inkscape:window-maximized="0"
     inkscape:current-layer="svg2" />
  <g
     id="setting"
     style="fill:#f2de00;fill-opacity:1;stroke:#00e200;stroke-opacity:1">
    <animateTransform
       attributeName="transform"
       attributeType="XML"
       type="rotate"
       from="0 128 128"
       to="360 128 128"
       dur="8s"
       repeatCount="indefinite" />
    <path
       id="mainsymbolpath"
       style="opacity:1;fill:#f2de00;fill-opacity:1;stroke:#00e200;stroke-opacity:1"
       d="m 121.21875,37.84375 -3.4375,9.5 -1.75,9.59375 c -4.56422,0.763494 -8.98805,1.921834 -13.21875,3.5 l -6.28125,-7.375 -7.75,-6.53125 -11.71875,6.78125 1.78125,9.9375 3.21875,9.15625 c -3.522603,2.912618 -6.743632,6.133647 -9.65625,9.65625 L 63.25,78.84375 53.3125,77.0625 l -6.78125,11.71875 6.53125,7.75 7.375,6.28125 c -1.578166,4.2307 -2.736506,8.65453 -3.5,13.21875 l -9.59375,1.75 -9.5,3.4375 0,13.5625 9.5,3.4375 9.59375,1.75 c 0.763494,4.56422 1.921834,8.98805 3.5,13.21875 l -7.375,6.28125 -6.53125,7.75 6.78125,11.71875 9.9375,-1.78125 9.15625,-3.21875 c 2.912618,3.5226 6.133647,6.74363 9.65625,9.65625 l -3.21875,9.15625 -1.78125,9.9375 11.71875,6.78125 7.75,-6.53125 6.28125,-7.375 c 4.2307,1.57817 8.65453,2.73651 13.21875,3.5 l 1.75,9.59375 3.4375,9.5 13.5625,0 3.4375,-9.5 1.75,-9.59375 c 4.56422,-0.76349 8.98805,-1.92183 13.21875,-3.5 l 6.28125,7.375 7.75,6.53125 11.71875,-6.78125 -1.78125,-9.9375 -3.21875,-9.15625 c 3.5226,-2.91262 6.74363,-6.13365 9.65625,-9.65625 l 9.15625,3.21875 9.9375,1.78125 6.78125,-11.71875 -6.53125,-7.75 -7.375,-6.28125 c 1.57817,-4.2307 2.73651,-8.65453 3.5,-13.21875 l 9.59375,-1.75 9.5,-3.4375 0,-13.5625 -9.5,-3.4375 -9.59375,-1.75 c -0.76349,-4.56422 -1.92183,-8.98805 -3.5,-13.21875 l 7.375,-6.28125 6.53125,-7.75 -6.78125,-11.71875 -9.9375,1.78125 -9.15625,3.21875 c -2.91262,-3.522603 -6.13365,-6.743632 -9.65625,-9.65625 l 3.21875,-9.15625 1.78125,-9.9375 -11.71875,-6.78125 -7.75,6.53125 -6.28125,7.375 c -4.2307,-1.578166 -8.65453,-2.736506 -13.21875,-3.5 l -1.75,-9.59375 -3.4375,-9.5 -13.5625,0 z M 128,107.125 c 11.52306,0 20.875,9.35194 20.875,20.875 0,11.52306 -9.35194,20.875 -20.875,20.875 -11.52306,0 -20.875,-9.35194 -20.875,-20.875 0,-11.52306 9.35194,-20.875 20.875,-20.875 z" />
  </g>
</svg>
