<?xml version="1.0" encoding="UTF-8" standalone="no"?>
<!-- Generator: Adobe Illustrator 16.0.0, SVG Export Plug-In . SVG Version: 6.00 Build 0)  -->

<svg
   version="1.1"
   id="Layer_1"
   x="0px"
   y="0px"
   width="512px"
   height="512px"
   viewBox="0 0 512 512"
   enable-background="new 0 0 512 512"
   xml:space="preserve"
   sodipodi:docname="place-2st.svg"
   inkscape:version="1.1.2 (0a00cf5339, 2022-02-04)"
   xmlns:inkscape="http://www.inkscape.org/namespaces/inkscape"
   xmlns:sodipodi="http://sodipodi.sourceforge.net/DTD/sodipodi-0.dtd"
   xmlns="http://www.w3.org/2000/svg"
   xmlns:svg="http://www.w3.org/2000/svg"
   xmlns:rdf="http://www.w3.org/1999/02/22-rdf-syntax-ns#"
   xmlns:cc="http://creativecommons.org/ns#"
   xmlns:dc="http://purl.org/dc/elements/1.1/"><metadata
   id="metadata13"><rdf:RDF><cc:Work
       rdf:about=""><dc:format>image/svg+xml</dc:format><dc:type
         rdf:resource="http://purl.org/dc/dcmitype/StillImage" /></cc:Work></rdf:RDF></metadata><defs
   id="defs11"><linearGradient
     id="linearGradient6004"
     inkscape:swatch="solid"><stop
       style="stop-color:#b1cab1;stop-opacity:1;"
       offset="0"
       id="stop6002" /></linearGradient><filter
     inkscape:collect="always"
     style="color-interpolation-filters:sRGB"
     id="filter11419"
     x="-0.08417406"
     y="-0.090899719"
     width="1.1683481"
     height="1.1817994"><feGaussianBlur
       inkscape:collect="always"
       stdDeviation="11.681654"
       id="feGaussianBlur11421" /></filter></defs><sodipodi:namedview
   pagecolor="#000000"
   bordercolor="#666666"
   borderopacity="1"
   objecttolerance="10"
   gridtolerance="10"
   guidetolerance="10"
   inkscape:pageopacity="0"
   inkscape:pageshadow="2"
   inkscape:window-width="2490"
   inkscape:window-height="1376"
   id="namedview9"
   showgrid="false"
   inkscape:zoom="0.057617187"
   inkscape:cx="-2811.661"
   inkscape:cy="2872.4068"
   inkscape:window-x="70"
   inkscape:window-y="27"
   inkscape:window-maximized="1"
   inkscape:current-layer="Layer_1"
   inkscape:pagecheckerboard="0"
   inkscape:snap-global="false" />

<path
   id="path3760"
   style="fill:#b3b3b4;fill-opacity:0.63085097;fill-rule:evenodd;stroke:none;stroke-width:1.16773px;stroke-linecap:butt;stroke-linejoin:miter;stroke-opacity:1"
   d="m 380.1202,308.57022 c -30.35196,29.40783 -70.90169,49.92504 -121.57533,51.81369 l 45.40404,101.51963 45.28188,-60.60351 77.03566,16.5032 z m -121.57533,51.81369 c -44.90168,-0.19053 -84.60945,-14.7382 -119.07209,-43.78889 l -48.564202,101.10214 79.753262,-14.63466 43.72599,57.63371 z"
   sodipodi:nodetypes="cccccccccccc" /><path
   style="fill:#b1b9a3;fill-opacity:1;fill-rule:evenodd;stroke:none;stroke-width:1.20602px;stroke-linecap:butt;stroke-linejoin:miter;stroke-opacity:1"
   d="M 267.3727,75.756566 C 170.92284,77.012288 120.21574,133.41785 119.37312,196.605 120.09079,265.58504 175.17494,324.14392 267.3727,324.76876 352.49429,323.39939 399.68458,265.345 400.90158,196.605 398.29111,127.1465 346.06854,77.704783 267.3727,75.756566 Z"
   id="path7712"
   sodipodi:nodetypes="ccccc" /><path
   id="path902-3"
   style="fill:#000000;fill-opacity:1;fill-rule:evenodd;stroke:none;stroke-width:1.16773px;stroke-linecap:butt;stroke-linejoin:miter;stroke-opacity:1;filter:url(#filter11419)"
   d="M 260.50182,51.92995 C 168.42794,52.77181 86.886321,116.38492 88.366151,198.764 89.856251,284.75446 148.33665,361.81385 260.50182,360.33651 356.2062,359.21362 421.70801,285.19154 421.41672,198.764 421.24511,115.06445 348.58512,52.60351 260.50182,51.92995 Z m 0,28.02137 c 81.52741,5.03437 129.17336,54.00754 128.79923,118.81268 -4.80138,84.60589 -54.72346,120.71284 -128.79923,123.48177 -77.45657,-5.78292 -138.63109,-52.52288 -141.1287,-123.48177 1.3808,-59.58475 59.14573,-117.76573 141.1287,-118.81268 z"
   sodipodi:nodetypes="cccccccccc" /><path
   id="path902"
   style="fill:#b1caae;fill-opacity:1;fill-rule:evenodd;stroke:none;stroke-width:1.16773px;stroke-linecap:butt;stroke-linejoin:miter;stroke-opacity:1"
   d="M 260.50182,51.929953 C 168.42794,52.77181 86.886318,116.38492 88.366148,198.764 89.856248,284.75446 148.33665,361.81385 260.50182,360.33651 356.2062,359.21362 421.70801,285.19154 421.41672,198.764 421.24511,115.06445 348.58512,52.603507 260.50182,51.929953 Z m 0,28.021368 C 342.02923,84.985688 389.67518,133.95886 389.30105,198.764 384.49967,283.36989 334.57759,319.47684 260.50182,322.24577 183.04525,316.46285 121.87073,269.72289 119.37312,198.764 120.75392,139.17925 178.51885,80.998274 260.50182,79.951321 Z"
   sodipodi:nodetypes="cccccccccc" /><path
   style="fill:#6e6d6c;fill-opacity:1;fill-rule:evenodd;stroke:#000000;stroke-width:4;stroke-linecap:butt;stroke-linejoin:miter;stroke-miterlimit:4;stroke-dasharray:none;stroke-opacity:1"
   d="m 197.66468,271.15715 113.07595,1.81907 c 0,0 2.5481,-25.42423 -1.81928,-30.97638 -2.98392,-3.79338 -60.75379,-0.77463 -60.75379,-0.77463 16.98064,-27.29799 43.28217,-32.57153 53.01096,-41.04624 11.10138,-9.67042 15.03615,-20.01647 14.63536,-33.69906 -8.40826,-40.91181 -34.5966,-39.71784 -59.10265,-42.50783 -49.20567,0.009 -51.96087,30.46 -57.87202,50.75758 l 46.69392,2.59457 -0.76641,-23.8018 c 6.88651,-8.18518 13.773,-7.87067 20.65949,-0.89559 5.10157,13.86545 4.71675,24.87215 -5.5639,30.72252 -17.34223,12.44349 -34.97411,21.31342 -51.5422,43.30771 -9.06139,15.93739 -12.51981,30.75203 -10.65543,44.50008 z"
   id="path7849"
   sodipodi:nodetypes="ccscsccccccccc" /></svg>
