<?xml version="1.0" encoding="UTF-8" standalone="no"?>
<!-- Created with Inkscape (http://www.inkscape.org/) by Toomai Glittershine for SmashWiki -->

<svg
   xmlns:dc="http://purl.org/dc/elements/1.1/"
   xmlns:cc="http://creativecommons.org/ns#"
   xmlns:rdf="http://www.w3.org/1999/02/22-rdf-syntax-ns#"
   xmlns:svg="http://www.w3.org/2000/svg"
   xmlns="http://www.w3.org/2000/svg"
   xmlns:sodipodi="http://sodipodi.sourceforge.net/DTD/sodipodi-0.dtd"
   xmlns:inkscape="http://www.inkscape.org/namespaces/inkscape"
   id="svg2"
   version="1.1"
   height="256"
   width="256"
   viewBox="0 0 256 256"
   sodipodi:docname="shit.svg"
   inkscape:version="0.92.3 (2405546, 2018-03-11)">
  <defs
     id="defs8" />
  <sodipodi:namedview
     pagecolor="#ffffff"
     bordercolor="#666666"
     borderopacity="1"
     objecttolerance="10"
     gridtolerance="10"
     guidetolerance="10"
     inkscape:pageopacity="0"
     inkscape:pageshadow="2"
     inkscape:window-width="1577"
     inkscape:window-height="796"
     id="namedview6"
     showgrid="false"
     inkscape:zoom="1.3037281"
     inkscape:cx="-34.551654"
     inkscape:cy="91.143768"
     inkscape:window-x="67"
     inkscape:window-y="27"
     inkscape:window-maximized="0"
     inkscape:current-layer="svg2" />
  <metadata
     id="metadata7">
    <rdf:RDF>
      <cc:Work
         rdf:about="">
        <dc:format>image/svg+xml</dc:format>
        <dc:type
           rdf:resource="http://purl.org/dc/dcmitype/StillImage" />
        <dc:title></dc:title>
      </cc:Work>
    </rdf:RDF>
  </metadata>
  <path
     style="fill:#0400f5;fill-opacity:1;fill-rule:evenodd;stroke:none;stroke-width:1px;stroke-linecap:butt;stroke-linejoin:miter;stroke-opacity:1"
     d="m 61.737452,122.36758 c -19.180513,12.5062 -44.677646,29.24498 -17.5035,60.95445 44.510723,35.23308 137.842978,24.9914 165.571298,3.58793 39.65425,-23.93113 8.71562,-51.42129 -5.96611,-62.91526 -23.01118,54.87879 -146.988757,31.18468 -142.101688,-1.62712 z"
     id="path827"
     inkscape:connector-curvature="0"
     sodipodi:nodetypes="ccccc" />
  <path
     style="fill:#0400f5;fill-opacity:1;fill-rule:evenodd;stroke:none;stroke-width:1px;stroke-linecap:butt;stroke-linejoin:miter;stroke-opacity:1"
     d="m 167.50016,87.113342 c 28.96793,16.391358 35.5038,32.359468 10.30509,47.728818 -27.35901,10.73965 -56.77173,9.8416 -87.190434,3.24295 C 70.907152,128.10797 59.572212,113.1026 77.241607,93.079446 98.888925,77.583052 127.5332,70.541554 136.04253,37.215037 c 24.77845,4.150054 36.45502,60.018899 -12.47457,65.084753 -3.80366,3.68253 -7.79432,8.70669 3.79661,10.84745 20.00577,3.25107 30.12183,-11.29934 40.13559,-26.033898 z"
     id="path829"
     inkscape:connector-curvature="0"
     sodipodi:nodetypes="cccccccc" />
</svg>
