<?xml version="1.0" encoding="UTF-8" standalone="no"?>
<svg
   xmlns:dc="http://purl.org/dc/elements/1.1/"
   xmlns:cc="http://creativecommons.org/ns#"
   xmlns:rdf="http://www.w3.org/1999/02/22-rdf-syntax-ns#"
   xmlns:svg="http://www.w3.org/2000/svg"
   xmlns="http://www.w3.org/2000/svg"
   xmlns:sodipodi="http://sodipodi.sourceforge.net/DTD/sodipodi-0.dtd"
   xmlns:inkscape="http://www.inkscape.org/namespaces/inkscape"
   height="512pt"
   viewBox="-61 0 512 512"
   width="512pt"
   version="1.1"
   id="svg38"
   sodipodi:docname="wait.svg"
   inkscape:version="0.92.3 (2405546, 2018-03-11)">
  <metadata
     id="metadata44">
    <rdf:RDF>
      <cc:Work
         rdf:about="">
        <dc:format>image/svg+xml</dc:format>
        <dc:type
           rdf:resource="http://purl.org/dc/dcmitype/StillImage" />
      </cc:Work>
    </rdf:RDF>
  </metadata>
  <defs
     id="defs42" />
  <sodipodi:namedview
     pagecolor="#ffffff"
     bordercolor="#666666"
     borderopacity="1"
     objecttolerance="10"
     gridtolerance="10"
     guidetolerance="10"
     inkscape:pageopacity="0"
     inkscape:pageshadow="2"
     inkscape:window-width="1586"
     inkscape:window-height="712"
     id="namedview40"
     showgrid="false"
     inkscape:zoom="0.34570313"
     inkscape:cx="341.33333"
     inkscape:cy="341.33333"
     inkscape:window-x="67"
     inkscape:window-y="27"
     inkscape:window-maximized="0"
     inkscape:current-layer="svg38" />
  <path
     d="m 273.46692,203.50669 c 22.27362,-22.27106 34.53895,-51.88392 34.53895,-83.38021 v -7.63609 c -5.4814,0 -223.319661,0 -226.011739,0 v 7.63609 c 0,31.49629 12.265333,61.10915 34.538959,83.38021 l 49.92883,49.93139 c 5.37393,5.37137 5.37393,14.08224 0,19.45615 l -49.92883,49.92884 C 94.259464,345.09414 81.994131,374.707 81.994131,406.20585 v 7.63352 H 308.00587 v -7.63352 c 0,-31.49885 -12.26533,-61.11171 -34.53895,-83.38278 l -49.92884,-49.92884 c -5.37392,-5.37391 -5.37392,-14.08478 0,-19.45615 z m 0,0"
     id="path2"
     inkscape:connector-curvature="0"
     style="fill:#fff9eb;stroke-width:0.65510648" />
  <path
     d="m 288.35268,120.12392 c 0,26.25032 -10.22069,50.92685 -28.78118,69.48479 l -49.9314,49.93139 c -13.02536,13.02536 -13.02536,34.22164 0,47.24956 l 49.9314,49.9314 c 18.56049,18.55793 28.78118,43.23446 28.78118,69.48223 v 7.63608 h 19.65319 v -7.63352 c 0,-31.49885 -12.26533,-61.11171 -34.53895,-83.38278 l -49.92884,-49.92884 c -5.37392,-5.37391 -5.37392,-14.08478 0,-19.45615 l 49.92884,-49.93139 c 22.27362,-22.27106 34.53895,-51.88392 34.53895,-83.38021 v -7.63609 h -19.65319 z m 0,0"
     id="path4"
     inkscape:connector-curvature="0"
     style="fill:#d3cdbf;stroke-width:0.65510648" />
  <path
     d="m 250.53563,346.62442 -8.7211,0.0512 h -0.17657 c -4.40406,-0.13306 -8.62898,-0.88541 -12.63639,-2.1598 -12.76178,-4.05859 -23.08483,-13.67279 -28.8426,-25.90997 h -9.8266 c -7.56699,16.03987 -23.54033,27.45049 -41.97288,28.0058 l -8.88744,0.003 c -12.33955,13.4932 -20.05496,30.10373 -22.36319,48.18057 v 16.42373 h 155.77972 v -16.42373 c -2.30566,-18.06917 -10.01596,-34.67202 -22.35295,-48.1708 z m 0,0"
     id="path6"
     inkscape:connector-curvature="0"
     style="fill:#ffb545;stroke-width:0.65510648" />
  <path
     d="m 250.53563,346.62442 -8.7211,0.0512 h -0.17657 c -4.37847,-0.13306 -8.61619,-0.88541 -12.63639,-2.1598 l 10.48938,11.87124 0.16377,0.18169 c 0.18681,0.20473 0.37362,0.41201 0.56043,0.61929 0.0384,0.0435 0.0768,0.087 0.11515,0.13306 4.96704,5.68101 0.77282,14.59148 -6.7737,14.59148 H 123.24025 c -1.34348,3.1962 -2.4848,6.47685 -3.43931,9.82659 h -0.0128 c -3.24994,11.41575 -2.67672,14.80132 -2.67672,29.4798 h 155.77972 v -13.75724 c -0.003,-10.12344 -5.41486,-32.30238 -22.35551,-50.83729 z m 0,0"
     id="path8"
     inkscape:connector-curvature="0"
     style="fill:#ff983b;stroke-width:0.65510648" />
  <path
     d="m 194.99745,235.84233 c -1.16691,-1.61473 -2.47201,-3.15014 -3.90761,-4.58574 l -39.42923,-39.43178 c -3.09384,-3.0964 -0.90077,-8.38843 3.47514,-8.38843 h 79.72851 c 4.3759,0 6.56898,5.28947 3.47257,8.38587 l -39.44457,39.44969 c -1.43049,1.43305 -2.73046,2.96078 -3.89481,4.57039 z m 0,0"
     id="path10"
     inkscape:connector-curvature="0"
     style="fill:#ffb545;stroke-width:0.65510648" />
  <path
     d="m 234.8617,183.43638 h -15.92984 l -37.82984,37.83239 9.23291,9.23035 9.8266,-0.49645 38.1753,-38.18042 c 3.09641,-3.0964 0.90333,-8.38843 -3.47513,-8.38587 z m 0,0"
     id="path12"
     inkscape:connector-curvature="0"
     style="fill:#ff983b;stroke-width:0.65510648" />
  <path
     d="m 308.00587,100.37092 c -3.23203,0 -222.77971,0 -226.011739,0 -5.427659,0 -9.826597,4.39894 -9.826597,9.8266 v 14.7399 c 0,5.42766 4.398938,9.82659 9.826597,9.82659 H 308.00587 c 5.42766,0 9.8266,-4.39893 9.8266,-9.82659 v -14.7399 c 0,-5.42766 -4.39894,-9.8266 -9.8266,-9.8266 z m 0,0"
     id="path14"
     inkscape:connector-curvature="0"
     style="fill:#a05a4b;stroke-width:0.65510648" />
  <path
     d="m 308.00587,100.37092 h -9.82659 c 0,8.14021 -6.59969,14.7399 -14.7399,14.7399 -5.73474,0 -209.022476,0 -211.271846,0 v 9.8266 c 0,5.42766 4.398938,9.82659 9.826597,9.82659 H 308.00587 c 5.42766,0 9.8266,-4.39893 9.8266,-9.82659 v -14.7399 c 0,-5.42766 -4.39894,-9.8266 -9.8266,-9.8266 z m 0,0"
     id="path16"
     inkscape:connector-curvature="0"
     style="fill:#81493b;stroke-width:0.65510648" />
  <path
     d="m 308.00587,391.56575 c -3.23203,0 -222.77971,0 -226.011739,0 -5.427659,0 -9.826597,4.39894 -9.826597,9.8266 v 14.73989 c 0,5.42766 4.398938,9.8266 9.826597,9.8266 H 308.00587 c 5.42766,0 9.8266,-4.39894 9.8266,-9.8266 v -14.73989 c 0,-5.42766 -4.39894,-9.8266 -9.8266,-9.8266 z m 0,0"
     id="path18"
     inkscape:connector-curvature="0"
     style="fill:#a05a4b;stroke-width:0.65510648" />
  <path
     d="m 308.00587,391.56575 h -9.82659 c 0,8.14021 -6.59969,14.7399 -14.7399,14.7399 -5.73474,0 -209.022476,0 -211.271846,0 v 9.82659 c 0,5.42766 4.398938,9.8266 9.826597,9.8266 H 308.00587 c 5.42766,0 9.8266,-4.39894 9.8266,-9.8266 v -14.73989 c 0,-5.42766 -4.39894,-9.8266 -9.8266,-9.8266 z m 0,0"
     id="path20"
     inkscape:connector-curvature="0"
     style="fill:#81493b;stroke-width:0.65510648" />
  <g
     id="g36"
     transform="matrix(0.65510649,0,0,0.65510649,67.254235,95.457624)"
     style="fill:#020201">
    <path
       d="m 225.58984,406 c 0,4.14062 -3.35937,7.5 -7.5,7.5 -4.14453,0 -7.5,-3.35938 -7.5,-7.5 0,-4.14063 3.35547,-7.5 7.5,-7.5 4.14063,0 7.5,3.35937 7.5,7.5 z m 0,0"
       id="path22"
       inkscape:connector-curvature="0" />
    <path
       d="m 255.58984,422 c 0,4.14062 -3.35937,7.5 -7.5,7.5 -4.14453,0 -7.5,-3.35938 -7.5,-7.5 0,-4.14063 3.35547,-7.5 7.5,-7.5 4.14063,0 7.5,3.35937 7.5,7.5 z m 0,0"
       id="path24"
       inkscape:connector-curvature="0" />
    <path
       d="m 185.58984,422 c 0,4.14062 -3.35937,7.5 -7.5,7.5 -4.14453,0 -7.5,-3.35938 -7.5,-7.5 0,-4.14063 3.35547,-7.5 7.5,-7.5 4.14063,0 7.5,3.35937 7.5,7.5 z m 0,0"
       id="path26"
       inkscape:connector-curvature="0" />
    <path
       d="m 155.58984,406 c 0,4.14062 -3.35937,7.5 -7.5,7.5 -4.14453,0 -7.5,-3.35938 -7.5,-7.5 0,-4.14063 3.35547,-7.5 7.5,-7.5 4.14063,0 7.5,3.35937 7.5,7.5 z m 0,0"
       id="path28"
       inkscape:connector-curvature="0" />
    <path
       d="m 181.58984,157 c 0,4.14062 -3.35937,7.5 -7.5,7.5 -4.14453,0 -7.5,-3.35938 -7.5,-7.5 0,-4.14063 3.35547,-7.5 7.5,-7.5 4.14063,0 7.5,3.35937 7.5,7.5 z m 0,0"
       id="path30"
       inkscape:connector-curvature="0" />
    <path
       d="m 211.58984,167 c 0,4.14062 -3.35937,7.5 -7.5,7.5 -4.14453,0 -7.5,-3.35938 -7.5,-7.5 0,-4.14063 3.35547,-7.5 7.5,-7.5 4.14063,0 7.5,3.35937 7.5,7.5 z m 0,0"
       id="path32"
       inkscape:connector-curvature="0" />
    <path
       d="M 320.08203,170.23828 C 348.52344,141.79687 366.64453,106.16406 372.73828,66.878906 382.625,64.507812 390,55.601562 390,45 V 22.5 C 390,10.09375 379.90625,0 367.5,0 H 22.5 C 10.09375,0 0,10.09375 0,22.5 V 45 c 0,12.40625 10.09375,22.5 22.5,22.5 h 334.9375 c -6.03516,34.96484 -22.50391,66.67187 -47.96094,92.12891 l -76.21875,76.21875 c -11.10937,11.11328 -11.10937,29.1914 0,40.30468 l 76.21875,76.21875 c 25.45703,25.45703 41.92578,57.16407 47.96094,92.12891 h -38.05859 c -5.21875,-24.62891 -16.91407,-47.39844 -34.08594,-66.17969 -1.42188,-1.55078 -3.42969,-2.4375 -5.53125,-2.4375 l -13.44922,-0.004 C 250.16016,375.36328 234.73047,368.67969 222.86719,357.05078 211.58984,346 208.3125,335.47266 202.50391,321.28125 V 216.40234 l 76.75781,-76.8125 c 4.70703,-4.70703 1.36719,-12.80078 -5.30078,-12.80078 l -157.91797,0.0117 c -6.67969,0 -10.01563,8.08594 -5.30078,12.80078 l 57.73828,57.76953 c 2.97265,2.97266 7.72656,2.89453 10.61328,0.0117 2.95703,-2.96094 2.90625,-7.68359 0.008,-10.60156 l -44.96094,-44.98047 121.71094,-0.0117 -66.16015,66.19922 c -0.0117,0.0117 -0.0195,0.0312 -0.043,0.0391 -1.42969,1.46875 -2.14844,3.33203 -2.14844,5.26172 v 105.97656 c -4.19531,12.13672 -7.57813,25.25 -20.36328,37.78516 -11.86719,11.62891 -27.29297,18.3125 -43.44922,18.82813 l -13.44531,0.004 c -2.10547,0 -4.11328,0.88672 -5.53516,2.4375 C 87.539062,397.09766 75.84375,419.86719 70.625,444.5 H 32.566406 c 6.042969,-34.97266 22.511719,-66.67969 47.953125,-92.12891 l 76.222659,-76.22265 c 11.1289,-11.13282 11.13281,-29.16407 0,-40.30078 L 80.519531,159.62891 C 60.25,139.34766 45.261719,114.30078 37.179688,87.1875 c -1.160157,-3.902344 -5.34375,-6.242188 -9.328126,-5.046875 -3.941406,1.167969 -6.238281,5.320313 -5.050781,9.328125 8.84375,29.64844 24.949219,56.60156 47.121094,78.76953 l 76.210935,76.21094 c 5.27735,5.30078 5.27344,13.80469 0,19.10156 l -76.210935,76.21094 c -14.820313,14.8164 -26.949219,31.76953 -36.039063,50.3789 -8.183593,16.74219 -13.753906,34.53907 -16.621093,52.98047 C 7.371094,447.49219 0,456.39844 0,467 v 22.5 C 0,501.90625 10.09375,512 22.5,512 h 345 c 12.40625,0 22.5,-10.09375 22.5,-22.5 V 467 c 0,-10.60156 -7.375,-19.50781 -17.26172,-21.87891 -6.09375,-39.28515 -24.21484,-74.91797 -52.65625,-103.35937 l -76.21484,-76.21485 c -5.26563,-5.26562 -5.26563,-13.82812 0,-19.09375 z M 22.5,52.5 C 18.363281,52.5 15,49.136719 15,45 V 22.5 C 15,18.363281 18.363281,15 22.5,15 h 345 c 4.13672,0 7.5,3.363281 7.5,7.5 V 45 c 0,4.136719 -3.36328,7.5 -7.5,7.5 z m 91.10156,338.38281 10.20703,-0.004 c 0.0742,0 0.14844,0 0.22266,-0.004 29.47656,-0.88672 57.70312,-18.53125 70.96875,-48.34375 6.21484,13.96875 15.33203,24.94141 27.04687,33.35156 H 195 c -4.14063,0 -7.5,3.35547 -7.5,7.5 0,4.14063 3.35937,7.5 7.5,7.5 h 81.39844 c 13.46875,15.5 22.90234,33.84375 27.61718,53.61719 H 85.984375 c 4.714844,-19.77344 14.148435,-38.11719 27.617185,-53.61719 z M 375,467 v 22.5 c 0,4.13672 -3.36328,7.5 -7.5,7.5 H 22.5 C 18.363281,497 15,493.63672 15,489.5 V 467 c 0,-4.13672 3.363281,-7.5 7.5,-7.5 h 345 c 4.13672,0 7.5,3.36328 7.5,7.5 z m 0,0"
       id="path34"
       inkscape:connector-curvature="0" />
  </g>
</svg>
