<?xml version="1.0" encoding="UTF-8" standalone="no"?>
<!-- Created with Inkscape (http://www.inkscape.org/) -->

<svg
   xmlns:dc="http://purl.org/dc/elements/1.1/"
   xmlns:cc="http://creativecommons.org/ns#"
   xmlns:rdf="http://www.w3.org/1999/02/22-rdf-syntax-ns#"
   xmlns:svg="http://www.w3.org/2000/svg"
   xmlns="http://www.w3.org/2000/svg"
   xmlns:sodipodi="http://sodipodi.sourceforge.net/DTD/sodipodi-0.dtd"
   xmlns:inkscape="http://www.inkscape.org/namespaces/inkscape"
   width="100"
   height="100"
   viewBox="0 0 26.458333 26.458334"
   version="1.1"
   id="svg8"
   inkscape:version="0.92.3 (2405546, 2018-03-11)"
   sodipodi:docname="defence.svg">
  <defs
     id="defs2" />
  <sodipodi:namedview
     id="base"
     pagecolor="#ffffff"
     bordercolor="#666666"
     borderopacity="1.0"
     inkscape:pageopacity="0.0"
     inkscape:pageshadow="2"
     inkscape:zoom="2.8"
     inkscape:cx="89.372816"
     inkscape:cy="17.615744"
     inkscape:document-units="px"
     inkscape:current-layer="layer1"
     showgrid="false"
     units="px"
     inkscape:window-width="1853"
     inkscape:window-height="1025"
     inkscape:window-x="67"
     inkscape:window-y="27"
     inkscape:window-maximized="1"
     inkscape:snap-global="false" />
  <metadata
     id="metadata5">
    <rdf:RDF>
      <cc:Work
         rdf:about="">
        <dc:format>image/svg+xml</dc:format>
        <dc:type
           rdf:resource="http://purl.org/dc/dcmitype/StillImage" />
        <dc:title></dc:title>
      </cc:Work>
    </rdf:RDF>
  </metadata>
  <g
     inkscape:label="Layer 1"
     inkscape:groupmode="layer"
     id="layer1"
     transform="translate(0,-270.54166)">
    <g
       transform="translate(0,-198.96085)"
       id="layer1-3"
       inkscape:label="Layer 1" />
    <g
       transform="translate(0,-198.96085)"
       id="layer1-1"
       inkscape:label="Layer 1" />
    <path
       style="fill:#00b100;fill-opacity:1;fill-rule:evenodd;stroke:none;stroke-width:0.39925796px;stroke-linecap:butt;stroke-linejoin:miter;stroke-opacity:1"
       d="m 12.754248,270.73943 0.07564,6.95739 -0.503752,-0.0756 v 2.29418 l -1.613407,-0.0257 v -2.24349 l -1.9159703,-0.025 0.025733,2.29419 -1.6391412,-0.10142 -0.024954,-2.09222 -1.8403296,-0.025 -0.1005947,6.30157 2.2185327,0.0507 -2.2692198,12.55323 16.0826099,0.0499 -2.117939,-12.60313 1.91597,-0.0257 0.151282,-6.30158 -1.714003,-0.025 -0.02495,2.16785 -1.815377,-0.0756 0.07563,-2.0922 -1.814597,-0.0507 -0.02573,2.29417 h -1.714003 l -0.04991,-2.31913 -0.403157,-0.025 -0.08613,-2.7683 c 2.308887,1.73553 4.723296,-1.47062 7.650089,0.62095 l 0.0025,-4.02348 c -2.517407,-1.04274 -6.075493,1.16429 -7.541537,-0.68596 z m 0.554438,15.45176 2.067252,1.66408 -0.07564,4.08305 -4.10877,-0.025 -0.05069,-4.13372 z"
       id="path857"
       inkscape:connector-curvature="0"
       sodipodi:nodetypes="cccccccccccccccccccccccccccccccccccccc" />
  </g>
</svg>
