<?xml version="1.0" encoding="UTF-8" standalone="no"?>
<!-- Created with Inkscape (http://www.inkscape.org/) -->

<svg
   width="100"
   height="100"
   viewBox="0 0 26.458333 26.458334"
   version="1.1"
   id="svg8"
   inkscape:version="1.1.2 (0a00cf5339, 2022-02-04)"
   sodipodi:docname="attack.svg"
   xmlns:inkscape="http://www.inkscape.org/namespaces/inkscape"
   xmlns:sodipodi="http://sodipodi.sourceforge.net/DTD/sodipodi-0.dtd"
   xmlns="http://www.w3.org/2000/svg"
   xmlns:svg="http://www.w3.org/2000/svg"
   xmlns:rdf="http://www.w3.org/1999/02/22-rdf-syntax-ns#"
   xmlns:cc="http://creativecommons.org/ns#"
   xmlns:dc="http://purl.org/dc/elements/1.1/">
  <defs
     id="defs2" />
  <sodipodi:namedview
     id="base"
     pagecolor="#ffffff"
     bordercolor="#666666"
     borderopacity="1.0"
     inkscape:pageopacity="0.0"
     inkscape:pageshadow="2"
     inkscape:zoom="5.6"
     inkscape:cx="56.25"
     inkscape:cy="57.767857"
     inkscape:document-units="px"
     inkscape:current-layer="layer1"
     showgrid="false"
     units="px"
     inkscape:window-width="2490"
     inkscape:window-height="1376"
     inkscape:window-x="70"
     inkscape:window-y="27"
     inkscape:window-maximized="1"
     inkscape:snap-global="false"
     inkscape:pagecheckerboard="0" />
  <metadata
     id="metadata5">
    <rdf:RDF>
      <cc:Work
         rdf:about="">
        <dc:format>image/svg+xml</dc:format>
        <dc:type
           rdf:resource="http://purl.org/dc/dcmitype/StillImage" />
      </cc:Work>
    </rdf:RDF>
  </metadata>
  <g
     inkscape:label="Layer 1"
     inkscape:groupmode="layer"
     id="layer1"
     transform="translate(0,-270.54166)">
    <g
       transform="translate(0,-198.96085)"
       id="layer1-3"
       inkscape:label="Layer 1" />
    <g
       transform="translate(0,-198.96085)"
       id="layer1-1"
       inkscape:label="Layer 1" />
    <path
       id="path870"
       style="fill:#cc5914;fill-opacity:1;fill-rule:evenodd;stroke:none;stroke-width:0.264583px;stroke-linecap:butt;stroke-linejoin:miter;stroke-opacity:1"
       d="m 0.70231812,271.22929 c 3.33010218,5.25249 7.37594078,10.89776 15.55925688,18.81332 l -2.86494,2.16214 1.201992,1.39733 3.681946,-3.40599 4.247804,4.21215 0.629417,1.83348 2.461866,-2.67684 -1.562695,-0.45941 -4.462778,-4.27674 3.517099,-3.66799 -1.411801,-1.50637 -1.860868,3.02876 C 13.542899,280.88115 7.201144,275.43855 0.70231812,271.22929 Z m 24.37784088,0.21652 c -4.020595,2.34554 -8.100272,4.56276 -11.493873,8.26513 l 3.170348,2.96003 c 3.735872,-3.93704 5.866659,-7.54807 8.323525,-11.22516 z m -20.9232713,12.3145 -1.4355712,1.48466 3.517098,3.53054 -4.2808758,4.1615 -1.78335348,0.7922 2.61637778,2.57658 0.4516519,-1.74201 4.381128,-4.41161 3.4618051,3.47989 1.473811,-1.37511 -3.0421921,-2.16731 2.8251521,-2.66082 -3.3150441,-3.37344 -2.7708905,2.85047 z" />
  </g>
</svg>
