<?xml version="1.0" encoding="UTF-8" standalone="no"?>
<!-- Created with Inkscape (http://www.inkscape.org/) -->

<svg
   width="100"
   height="100"
   viewBox="0 0 26.458333 26.458334"
   version="1.1"
   id="svg8"
   inkscape:version="1.1.2 (0a00cf5339, 2022-02-04)"
   sodipodi:docname="attack-points.svg"
   xmlns:inkscape="http://www.inkscape.org/namespaces/inkscape"
   xmlns:sodipodi="http://sodipodi.sourceforge.net/DTD/sodipodi-0.dtd"
   xmlns="http://www.w3.org/2000/svg"
   xmlns:svg="http://www.w3.org/2000/svg"
   xmlns:rdf="http://www.w3.org/1999/02/22-rdf-syntax-ns#"
   xmlns:cc="http://creativecommons.org/ns#"
   xmlns:dc="http://purl.org/dc/elements/1.1/">
  <defs
     id="defs2" />
  <sodipodi:namedview
     id="base"
     pagecolor="#ffffff"
     bordercolor="#666666"
     borderopacity="1.0"
     inkscape:pageopacity="0.0"
     inkscape:pageshadow="2"
     inkscape:zoom="2.8"
     inkscape:cx="25.714286"
     inkscape:cy="58.035714"
     inkscape:document-units="px"
     inkscape:current-layer="layer1"
     showgrid="false"
     units="px"
     inkscape:window-width="2490"
     inkscape:window-height="1376"
     inkscape:window-x="70"
     inkscape:window-y="27"
     inkscape:window-maximized="1"
     inkscape:snap-global="false"
     inkscape:pagecheckerboard="0" />
  <metadata
     id="metadata5">
    <rdf:RDF>
      <cc:Work
         rdf:about="">
        <dc:format>image/svg+xml</dc:format>
        <dc:type
           rdf:resource="http://purl.org/dc/dcmitype/StillImage" />
      </cc:Work>
    </rdf:RDF>
  </metadata>
  <g
     inkscape:label="Layer 1"
     inkscape:groupmode="layer"
     id="layer1"
     transform="translate(0,-270.54166)">
    <g
       transform="translate(0,-198.96085)"
       id="layer1-3"
       inkscape:label="Layer 1" />
    <g
       transform="translate(0,-198.96085)"
       id="layer1-1"
       inkscape:label="Layer 1" />
    <path
       style="fill:#cc5914;fill-opacity:1;fill-rule:evenodd;stroke:none;stroke-width:0.30876076px;stroke-linecap:butt;stroke-linejoin:miter;stroke-opacity:1"
       d="m 4.4822084,293.53427 c 0.2339217,0.039 1.4035298,-0.15594 1.4035298,-0.15594 l 0.1169607,1.28657 1.9883335,2.14428 1.7154251,-1.32555 -0.3898687,-5.0683 1.5594772,-1.83239 5.536144,5.02931 1.988335,-1.52049 -0.155949,-1.71543 2.807059,-3.2749 -2.729085,1.20859 -0.116961,-1.1696 2.378203,-3.002 -2.495164,0.89671 -0.272908,-1.48151 6.198922,-8.46017 2.378204,-4.36653 -4.71742,2.18328 -8.421178,6.39385 -1.598464,-0.19493 1.520491,-2.41719 -3.6257852,2.33921 -1.4425163,-0.23392 1.832386,-2.6901 -3.4308504,2.22224 H 4.9890385 l -1.8323858,1.91038 5.302223,5.26323 -1.9493466,1.98834 -4.6784321,-0.3119 -1.67643828,1.16961 2.41718998,2.72908 1.2286624,-0.0618 -0.5812219,0.99279 z"
       id="path892"
       inkscape:connector-curvature="0"
       sodipodi:nodetypes="cccccccccccccccccccccccccccccccccccc" />
    <g
       id="g831"
       transform="matrix(0.59023936,0,0,0.54947771,10.694618,133.53134)">
      <path
         style="fill:#ffe600;fill-opacity:1;fill-rule:evenodd;stroke:#000000;stroke-width:0.334308px;stroke-linecap:butt;stroke-linejoin:miter;stroke-opacity:1"
         d="m 4.522599,289.63405 2.3282191,-7.04435 -6.02949182,-4.17886 7.16375252,-0.1791 2.4476152,-6.86525 2.208825,7.04435 7.342847,0.0598 -5.850398,4.17886 2.387919,7.22345 -6.029495,-4.47734 z"
         id="path826-3"
         inkscape:connector-curvature="0" />
      <path
         style="fill:#ff6700;fill-opacity:1;fill-rule:evenodd;stroke:#000000;stroke-width:0.264583px;stroke-linecap:butt;stroke-linejoin:miter;stroke-opacity:1"
         d="m 13.708745,289.40582 1.842634,-5.57514 -4.77195,-3.3073 5.669643,-0.14174 1.937128,-5.4334 1.74814,5.57514 5.811384,0.0473 -4.630208,3.30729 1.889881,5.71689 -4.77195,-3.54352 z"
         id="path826"
         inkscape:connector-curvature="0" />
      <path
         style="fill:#4be600;fill-opacity:1;fill-rule:evenodd;stroke:#000000;stroke-width:0.264583px;stroke-linecap:butt;stroke-linejoin:miter;stroke-opacity:1"
         d="m 7.3942979,296.36898 1.8426337,-5.57514 -4.7719497,-3.3073 5.6696431,-0.14174 1.937128,-5.4334 1.74814,5.57514 5.811384,0.0473 -4.630208,3.30729 1.889881,5.71689 -4.77195,-3.54352 z"
         id="path826-6"
         inkscape:connector-curvature="0" />
    </g>
  </g>
</svg>
