<?xml version="1.0" encoding="UTF-8" standalone="no"?>
<!-- Created with Inkscape (http://www.inkscape.org/) -->

<svg
   xmlns:dc="http://purl.org/dc/elements/1.1/"
   xmlns:cc="http://creativecommons.org/ns#"
   xmlns:rdf="http://www.w3.org/1999/02/22-rdf-syntax-ns#"
   xmlns:svg="http://www.w3.org/2000/svg"
   xmlns="http://www.w3.org/2000/svg"
   xmlns:sodipodi="http://sodipodi.sourceforge.net/DTD/sodipodi-0.dtd"
   xmlns:inkscape="http://www.inkscape.org/namespaces/inkscape"
   width="100"
   height="100"
   viewBox="0 0 26.458333 26.458334"
   version="1.1"
   id="svg8"
   inkscape:version="0.92.3 (2405546, 2018-03-11)"
   sodipodi:docname="attack.svg">
  <defs
     id="defs2" />
  <sodipodi:namedview
     id="base"
     pagecolor="#ffffff"
     bordercolor="#666666"
     borderopacity="1.0"
     inkscape:pageopacity="0.0"
     inkscape:pageshadow="2"
     inkscape:zoom="3.959798"
     inkscape:cx="23.624672"
     inkscape:cy="49.557662"
     inkscape:document-units="px"
     inkscape:current-layer="layer1"
     showgrid="false"
     units="px"
     inkscape:window-width="1853"
     inkscape:window-height="1025"
     inkscape:window-x="67"
     inkscape:window-y="27"
     inkscape:window-maximized="1"
     inkscape:snap-global="false" />
  <metadata
     id="metadata5">
    <rdf:RDF>
      <cc:Work
         rdf:about="">
        <dc:format>image/svg+xml</dc:format>
        <dc:type
           rdf:resource="http://purl.org/dc/dcmitype/StillImage" />
        <dc:title />
      </cc:Work>
    </rdf:RDF>
  </metadata>
  <g
     inkscape:label="Layer 1"
     inkscape:groupmode="layer"
     id="layer1"
     transform="translate(0,-270.54166)">
    <g
       transform="translate(0,-198.96085)"
       id="layer1-3"
       inkscape:label="Layer 1" />
    <g
       transform="translate(0,-198.96085)"
       id="layer1-1"
       inkscape:label="Layer 1" />
    <path
       style="fill:#cc5914;fill-opacity:1;fill-rule:evenodd;stroke:none;stroke-width:0.30876076px;stroke-linecap:butt;stroke-linejoin:miter;stroke-opacity:1"
       d="m 4.4822084,293.53427 c 0.2339217,0.039 1.4035298,-0.15594 1.4035298,-0.15594 l 0.1169607,1.28657 1.9883335,2.14428 1.7154251,-1.32555 -0.3898687,-5.0683 1.5594772,-1.83239 5.536144,5.02931 1.988335,-1.52049 -0.155949,-1.71543 2.807059,-3.2749 -2.729085,1.20859 -0.116961,-1.1696 2.378203,-3.002 -2.495164,0.89671 -0.272908,-1.48151 6.198922,-8.46017 2.378204,-4.36653 -4.71742,2.18328 -8.421178,6.39385 -1.598464,-0.19493 1.520491,-2.41719 -3.6257852,2.33921 -1.4425163,-0.23392 1.832386,-2.6901 -3.4308504,2.22224 H 4.9890385 l -1.8323858,1.91038 5.302223,5.26323 -1.9493466,1.98834 -4.6784321,-0.3119 -1.67643828,1.16961 2.41718998,2.72908 1.2286624,-0.0618 -0.5812219,0.99279 z"
       id="path892"
       inkscape:connector-curvature="0"
       sodipodi:nodetypes="cccccccccccccccccccccccccccccccccccc" />
  </g>
</svg>
