<?xml version="1.0" encoding="UTF-8" standalone="no"?>
<!-- Created with Inkscape (http://www.inkscape.org/) -->

<svg
   width="100"
   height="100"
   viewBox="0 0 26.458333 26.458334"
   version="1.1"
   id="svg8"
   inkscape:version="1.1.2 (0a00cf5339, 2022-02-04)"
   sodipodi:docname="defence-flags.svg"
   xmlns:inkscape="http://www.inkscape.org/namespaces/inkscape"
   xmlns:sodipodi="http://sodipodi.sourceforge.net/DTD/sodipodi-0.dtd"
   xmlns="http://www.w3.org/2000/svg"
   xmlns:svg="http://www.w3.org/2000/svg"
   xmlns:rdf="http://www.w3.org/1999/02/22-rdf-syntax-ns#"
   xmlns:cc="http://creativecommons.org/ns#"
   xmlns:dc="http://purl.org/dc/elements/1.1/">
  <defs
     id="defs2" />
  <sodipodi:namedview
     id="base"
     pagecolor="#ffffff"
     bordercolor="#666666"
     borderopacity="1.0"
     inkscape:pageopacity="0.0"
     inkscape:pageshadow="2"
     inkscape:zoom="5.6"
     inkscape:cx="58.125"
     inkscape:cy="99.732143"
     inkscape:document-units="px"
     inkscape:current-layer="layer1"
     showgrid="false"
     units="mm"
     inkscape:window-width="1553"
     inkscape:window-height="1082"
     inkscape:window-x="422"
     inkscape:window-y="64"
     inkscape:window-maximized="0"
     inkscape:snap-global="false"
     inkscape:pagecheckerboard="0" />
  <metadata
     id="metadata5">
    <rdf:RDF>
      <cc:Work
         rdf:about="">
        <dc:format>image/svg+xml</dc:format>
        <dc:type
           rdf:resource="http://purl.org/dc/dcmitype/StillImage" />
      </cc:Work>
    </rdf:RDF>
  </metadata>
  <g
     inkscape:label="Layer 1"
     inkscape:groupmode="layer"
     id="layer1"
     transform="translate(0,-270.54166)">
    <g
       transform="translate(0,-198.96085)"
       id="layer1-3"
       inkscape:label="Layer 1" />
    <g
       transform="translate(0,-198.96085)"
       id="layer1-1"
       inkscape:label="Layer 1" />
    <path
       id="path889"
       style="fill:#00b100;fill-opacity:1;fill-rule:evenodd;stroke:none;stroke-width:0.999999px;stroke-linecap:butt;stroke-linejoin:miter;stroke-opacity:1"
       d="M 49.017578,0.53320312 C 36.984208,8.9310109 24.100453,16.1826 8.2695312,19.457031 6.815993,66.754228 28.477786,82.090542 49.253906,98.650391 72.485615,82.448728 91.284984,61.461745 90.751953,19.603516 74.228456,16.749179 61.696498,8.5427779 49.017578,0.53320312 Z M 49.238281,6.3789062 C 60.093141,14.710005 72.602536,19.357732 85.384766,23.400391 83.176777,65.726412 65.735624,79.111809 48.658203,93.189453 23.272101,73.716193 12.864958,49.780764 12.867188,22.744141 26.10924,20.474459 37.701363,13.505735 49.238281,6.3789062 Z m -0.30664,6.3261718 c -8.207392,7.1808 -18.577128,11.519808 -30.06836,14.384766 -0.675571,33.206475 16.755068,48.043763 30.25,59.3125 C 80.47263,59.853468 78.67596,43.963656 79.568359,27.210938 68.699459,25.145123 58.676128,19.512688 48.931641,12.705078 Z"
       transform="matrix(0.26458333,0,0,0.26458333,0,270.54166)"
       sodipodi:nodetypes="ccccccccccccccc" />
  </g>
</svg>
