<?xml version="1.0" encoding="UTF-8" standalone="no"?>
<!-- Created with Inkscape (http://www.inkscape.org/) -->

<svg
   width="100"
   height="100"
   viewBox="0 0 26.458333 26.458334"
   version="1.1"
   id="svg8"
   inkscape:version="1.1.2 (0a00cf5339, 2022-02-04)"
   sodipodi:docname="defence-points.svg"
   xmlns:inkscape="http://www.inkscape.org/namespaces/inkscape"
   xmlns:sodipodi="http://sodipodi.sourceforge.net/DTD/sodipodi-0.dtd"
   xmlns="http://www.w3.org/2000/svg"
   xmlns:svg="http://www.w3.org/2000/svg"
   xmlns:rdf="http://www.w3.org/1999/02/22-rdf-syntax-ns#"
   xmlns:cc="http://creativecommons.org/ns#"
   xmlns:dc="http://purl.org/dc/elements/1.1/">
  <defs
     id="defs2" />
  <sodipodi:namedview
     id="base"
     pagecolor="#ffffff"
     bordercolor="#666666"
     borderopacity="1.0"
     inkscape:pageopacity="0.0"
     inkscape:pageshadow="2"
     inkscape:zoom="5.6"
     inkscape:cx="68.392857"
     inkscape:cy="61.339286"
     inkscape:document-units="px"
     inkscape:current-layer="layer1"
     showgrid="false"
     units="mm"
     inkscape:window-width="2490"
     inkscape:window-height="1376"
     inkscape:window-x="70"
     inkscape:window-y="27"
     inkscape:window-maximized="1"
     inkscape:snap-global="false"
     inkscape:pagecheckerboard="0" />
  <metadata
     id="metadata5">
    <rdf:RDF>
      <cc:Work
         rdf:about="">
        <dc:format>image/svg+xml</dc:format>
        <dc:type
           rdf:resource="http://purl.org/dc/dcmitype/StillImage" />
      </cc:Work>
    </rdf:RDF>
  </metadata>
  <g
     inkscape:label="Layer 1"
     inkscape:groupmode="layer"
     id="layer1"
     transform="translate(0,-270.54166)">
    <g
       transform="translate(0,-198.96085)"
       id="layer1-3"
       inkscape:label="Layer 1" />
    <g
       transform="translate(0,-198.96085)"
       id="layer1-1"
       inkscape:label="Layer 1" />
    <path
       id="path889"
       style="fill:#00b100;fill-opacity:1;fill-rule:evenodd;stroke:none;stroke-width:0.264583px;stroke-linecap:butt;stroke-linejoin:miter;stroke-opacity:1"
       d="m 13.47609,270.60128 c -3.183829,2.22192 -6.5926552,4.14057 -10.7812532,5.00693 -0.384582,12.51405 5.346767,16.57178 10.8437822,20.95324 6.146723,-4.28669 11.120722,-9.8395 10.979691,-20.91449 -4.371842,-0.75521 -7.687589,-2.92648 -11.04222,-5.04568 z m 0.0584,1.54667 c 2.872015,2.20427 6.181792,3.43398 9.563757,4.5036 -0.584197,11.19876 -5.198835,14.74032 -9.717236,18.46503 -6.7167402,-5.1523 -9.4702962,-11.48522 -9.4697062,-18.63866 3.503626,-0.60052 6.5707092,-2.44433 9.6231852,-4.32997 z m -0.08113,1.6738 c -2.171539,1.89992 -4.9151982,3.04795 -7.9555872,3.80597 -0.178745,8.78588 4.433112,12.71158 8.0036462,15.6931 8.297161,-7.02439 7.821792,-11.22857 8.057906,-15.66106 -2.87573,-0.54658 -5.527736,-2.03683 -8.105965,-3.83801 z"
       sodipodi:nodetypes="ccccccccccccccc" />
    <g
       id="g831"
       transform="matrix(0.6563753,0,0,0.62729614,9.3208877,110.99935)">
      <path
         style="fill:#ffe600;fill-opacity:1;fill-rule:evenodd;stroke:#000000;stroke-width:0.334308px;stroke-linecap:butt;stroke-linejoin:miter;stroke-opacity:1"
         d="m 4.522599,289.63405 2.3282191,-7.04435 -6.02949182,-4.17886 7.16375252,-0.1791 2.4476152,-6.86525 2.208825,7.04435 7.342847,0.0598 -5.850398,4.17886 2.387919,7.22345 -6.029495,-4.47734 z"
         id="path826-3"
         inkscape:connector-curvature="0" />
      <path
         style="fill:#ff6700;fill-opacity:1;fill-rule:evenodd;stroke:#000000;stroke-width:0.264583px;stroke-linecap:butt;stroke-linejoin:miter;stroke-opacity:1"
         d="m 13.708745,289.40582 1.842634,-5.57514 -4.77195,-3.3073 5.669643,-0.14174 1.937128,-5.4334 1.74814,5.57514 5.811384,0.0473 -4.630208,3.30729 1.889881,5.71689 -4.77195,-3.54352 z"
         id="path826"
         inkscape:connector-curvature="0" />
      <path
         style="fill:#4be600;fill-opacity:1;fill-rule:evenodd;stroke:#000000;stroke-width:0.264583px;stroke-linecap:butt;stroke-linejoin:miter;stroke-opacity:1"
         d="m 7.3942979,296.36898 1.8426337,-5.57514 -4.7719497,-3.3073 5.6696431,-0.14174 1.937128,-5.4334 1.74814,5.57514 5.811384,0.0473 -4.630208,3.30729 1.889881,5.71689 -4.77195,-3.54352 z"
         id="path826-6"
         inkscape:connector-curvature="0" />
    </g>
  </g>
</svg>
