<?xml version="1.0" encoding="UTF-8" standalone="no"?>
<!-- Created with Inkscape (http://www.inkscape.org/) -->

<svg
   xmlns:dc="http://purl.org/dc/elements/1.1/"
   xmlns:cc="http://creativecommons.org/ns#"
   xmlns:rdf="http://www.w3.org/1999/02/22-rdf-syntax-ns#"
   xmlns:svg="http://www.w3.org/2000/svg"
   xmlns="http://www.w3.org/2000/svg"
   xmlns:sodipodi="http://sodipodi.sourceforge.net/DTD/sodipodi-0.dtd"
   xmlns:inkscape="http://www.inkscape.org/namespaces/inkscape"
   width="300"
   height="300"
   viewBox="0 0 79.374998 79.375002"
   version="1.1"
   id="svg8"
   inkscape:version="0.92.3 (2405546, 2018-03-11)"
   sodipodi:docname="unknown.svg">
  <defs
     id="defs2" />
  <sodipodi:namedview
     id="base"
     pagecolor="#000000"
     bordercolor="#666666"
     borderopacity="1.0"
     inkscape:pageopacity="0"
     inkscape:pageshadow="2"
     inkscape:zoom="0.7"
     inkscape:cx="106.54607"
     inkscape:cy="251.26619"
     inkscape:document-units="mm"
     inkscape:current-layer="layer1"
     showgrid="false"
     units="px"
     inkscape:window-width="1154"
     inkscape:window-height="711"
     inkscape:window-x="648"
     inkscape:window-y="334"
     inkscape:window-maximized="0"
     inkscape:snap-global="false" />
  <metadata
     id="metadata5">
    <rdf:RDF>
      <cc:Work
         rdf:about="">
        <dc:format>image/svg+xml</dc:format>
        <dc:type
           rdf:resource="http://purl.org/dc/dcmitype/StillImage" />
        <dc:title></dc:title>
      </cc:Work>
    </rdf:RDF>
  </metadata>
  <g
     inkscape:label="Layer 1"
     inkscape:groupmode="layer"
     id="layer1"
     transform="translate(0,-217.62498)">
    <ellipse
       style="opacity:1;fill:#9997cb;fill-opacity:1;fill-rule:nonzero;stroke:none;stroke-width:0.48302105;stroke-linecap:round;stroke-linejoin:round;stroke-miterlimit:4;stroke-dasharray:none;stroke-dashoffset:0;stroke-opacity:1"
       id="path4577"
       cx="40.481434"
       cy="257.83157"
       rx="36.472393"
       ry="36.228432" />
    <path
       style="fill:#000000;fill-opacity:1;fill-rule:evenodd;stroke:none;stroke-width:0.30725181px;stroke-linecap:butt;stroke-linejoin:miter;stroke-opacity:1"
       d="m 40.75428,222.44323 c -4.251864,0.11287 -8.346253,2.50272 -11.433128,6.44628 -6.522523,9.71081 -5.729056,17.14454 -0.76813,25.01882 l -3.401373,-2.41421 c -2.480143,2.63298 -6.295393,4.19438 -7.736505,7.7365 l -3.511191,10.97286 c -1.250713,4.37649 -0.440882,7.55851 2.852883,9.60161 l 7.022983,3.29216 0.309711,5.9909 33.632875,0.32337 0.348988,-6.47871 7.022983,-3.45658 c 3.620087,-2.57333 4.051148,-4.97214 3.346765,-7.40705 l -4.883024,-14.48464 c -1.382906,-2.47169 -3.738061,-4.56932 -7.022983,-6.30946 l -3.072518,2.4136 c 5.404071,-7.62053 4.817825,-16.4776 -0.329457,-24.03105 -3.717682,-5.16309 -8.127023,-7.32728 -12.378888,-7.21441 z m 0.472879,2.55043 c 4.962071,0.30143 12.836683,5.93826 13.771723,17.50254 -10.13189,-7.06172 -21.208832,-4.83083 -27.817092,0 0.169546,-8.18235 5.791796,-17.60811 14.045369,-17.50254 z m -5.9428,15.12014 c 1.178532,-0.0292 2.109593,0.62218 2.992703,1.40544 -1.623032,1.34855 -3.75953,2.17689 -4.69399,-0.73752 l -0.07801,-0.15483 c 0.656573,-0.34567 1.243605,-0.49983 1.7793,-0.51309 z m 11.088669,0.039 c 0.590999,0.009 1.189562,0.19608 1.797304,0.5905 -0.68186,2.8477 -3.129413,2.52373 -4.694594,0.69792 0.948327,-0.82778 1.912293,-1.30408 2.89729,-1.28842 z m 6.569308,8.58265 c -1.262737,5.03376 -4.577263,8.65632 -8.146972,12.10404 4.278011,-1.53848 8.527344,-2.28964 12.297873,-5.29981 1.650983,0.79753 2.263302,1.77788 3.709546,3.59914 l 4.196526,12.16086 c 0.293822,1.71354 1.12367,2.55869 -1.056331,4.0198 -1.438019,1.10832 -3.102578,2.21062 -4.948621,2.70691 l 0.697917,-11.76978 c -0.0816,-2.49183 -1.508794,-3.07722 -2.632644,-3.07373 l -32.768526,-0.0539 c -1.455783,0.0567 -2.021737,1.40124 -1.992335,2.49043 l 0.720721,12.4683 c -1.820762,-0.18255 -3.170325,-1.62792 -4.937146,-2.66586 -1.217077,-1.35718 -1.169509,-2.28327 -0.846482,-3.63955 l 4.019591,-12.03878 c 1.417921,-1.63595 2.350632,-2.83456 3.872005,-3.69462 4.815833,3.88642 8.938224,3.73153 11.714164,4.55785 -4.607094,-3.97998 -7.502336,-8.44276 -7.797716,-11.67736 9.957967,12.18501 14.031913,11.50564 23.89843,-0.19383 z"
       id="path4549"
       inkscape:connector-curvature="0"
       sodipodi:nodetypes="ccccccccccccccccccccccccccccccccccccccccccccccccccccc" />
    <g
       transform="translate(1.8484103,17.681688)"
       id="layer1-3"
       inkscape:label="Layer 1"
       style="fill:#9997cb;fill-opacity:1;stroke:none;stroke-opacity:1">
      <path
         id="path826"
         d="m 39.535499,251.38304 c -0.122391,-0.003 -0.242528,2.2e-4 -0.359934,0.009 -5.250411,0.35209 -9.123968,6.81809 -3.576724,10.90049 l -0.01584,1.85263 1.415654,0.0541 -0.08596,-1.2255 0.65693,0.0731 -0.02582,1.13076 1.388377,0.0258 -0.02435,-1.18093 0.608362,-0.0243 0.03434,1.18813 1.303879,-0.0203 v -1.16789 h 0.608231 l 0.0974,1.16789 1.344066,0.0157 v -1.92208 c 6.381271,-5.49714 0.425535,-10.79579 -3.368614,-10.87629 z m 0.131866,6.69558 4.851729,0.0345 c -0.146845,1.34858 -0.774116,2.27869 -2.339773,2.39153 -1.282363,-0.004 -2.322865,-0.46185 -2.511956,-2.42599 z m -5.729279,0.0345 4.920657,0.0345 c -0.145965,1.44318 -0.93797,2.42213 -2.477493,2.42586 -1.818809,-0.12676 -2.118581,-1.37306 -2.443164,-2.46032 z m 5.299087,1.7205 1.324772,1.34193 h -2.61508 z"
         style="fill:#9997cb;fill-opacity:1;fill-rule:evenodd;stroke:none;stroke-width:0.06812806px;stroke-linecap:butt;stroke-linejoin:miter;stroke-opacity:1"
         inkscape:connector-curvature="0" />
    </g>
  </g>
</svg>
